<?xml version="1.0" encoding="utf-8"?>
<!-- Generator: Adobe Illustrator 27.9.0, SVG Export Plug-In . SVG Version: 6.00 Build 0)  -->
<svg version="1.1" id="Layer_1" xmlns="http://www.w3.org/2000/svg" xmlns:xlink="http://www.w3.org/1999/xlink" x="0px" y="0px"
	 viewBox="0 0 285.1 447.8" style="enable-background:new 0 0 285.1 447.8;" xml:space="preserve">
<style type="text/css">
	.st0{fill:#FFFFFF;}
</style>
<g>
	<path class="st0" d="M200.9,7.8c-0.1,0.5-0.1,1-0.2,1.4c-0.8,15.6,1.3,31,3.5,46.3c2.9,20.4,3.6,40.9,1.7,61.4
		c-2,20.8-7.7,40.6-15.8,59.8c-10.9,25.9-24.5,50.4-40.5,73.6c-5,7.2-9.9,14.5-14.9,21.7c-1.8,2.5-3.8,4.9-5.8,7.5
		c0.4-0.1,0.6-0.1,0.7-0.2c8.7-7.8,17-16.2,24.8-24.9c17.3-19.4,32.7-40.4,47.1-61.9c6.1-9.1,12.4-18.1,19.6-26.4
		c8.1-9.3,17.1-17.7,26.9-25.3c6.6-5.1,13.3-9.9,20.6-13.9c0.1,0,0.1-0.1,0.2-0.1c0.6-0.5,1.3-0.6,1.9,0.1c0.6,0.8-0.1,1.3-0.5,1.7
		c-1.6,1.6-3.2,3.1-4.7,4.7c-6.5,7-11.4,15.1-15.3,23.8c-4.2,9.4-8,19.1-11.9,28.6c-4.8,11.8-10.1,23.3-17,34.1
		c-6.1,9.4-13.6,17.6-22.2,24.7c-11.7,9.7-24.5,17.8-37.8,25.2c-9.2,5.2-18.7,9.9-28.5,14.2c-3.3,1.4-6.6,2.7-9.9,4.1
		c-0.8,0.4-1.7,0.9-2.2,1.5c-5.4,6.1-10.7,12.3-16,18.5c-0.3,0.4-0.7,0.8-0.8,1.4c0.3-0.2,0.6-0.3,0.9-0.5
		c11-7.7,22.5-14.7,34.5-20.8c19-9.7,39.2-15.4,60.2-18.6c14.1-2.1,28.3-3.1,42.5-4.4c10.3-0.9,20.6-2,30.6-4.8c2-0.6,4-1.3,6.1-1.9
		c0.5-0.1,1.2,0,1.6,0.4c0.6,0.6,0,1.1-0.5,1.5c-10.5,8.8-22,16.2-34.1,22.8c-11.2,6.1-22.8,11.3-34.9,15.3
		c-20.7,6.9-42,10.8-63.8,12.2c-9.9,0.6-19.9,0.9-29.8,2.7c-6.6,1.2-13.1,2.7-19.6,4.2c-0.5,0.1-1.1,0.4-1.5,0.8
		c-8,9.8-15.7,19.8-21.8,31c-0.2,0.4-0.5,0.9-0.5,1.4c1.5-0.9,3-1.9,4.5-2.8c13-7.6,26.9-13.2,41.2-17.9c13.1-4.3,26.4-7.9,40-10.2
		c15.4-2.6,31-2.7,46.5-1.8c9,0.5,18.1,0.9,27.1,1c6.6,0.1,13.2-0.9,19.6-2.9c0.4-0.1,1.1,0.1,1.2,0.3c0.2,0.4,0.1,1.1-0.2,1.4
		c-2.6,2.6-5.2,5.3-8,7.6c-3.2,2.7-6.7,5.1-10.1,7.7c-0.1,0.1-0.2,0.3-0.3,0.4c-3.8,2.3-7.6,4.7-11.4,7c-0.3,0.1-0.6,0.1-0.8,0.3
		c-7.3,4-14.9,7.2-22.8,9.8c-21.2,6.9-42.9,8.7-64.9,5.7c-9-1.2-18-2.7-27-3.8c-12.1-1.5-24.1-0.7-36,2.5c-0.8,0.2-1.3,0.6-1.6,1.4
		c-1.7,4.1-3.5,8.1-5.1,12.1C56,393,49,418.1,43.7,443.6c-0.2,1-0.5,1.7-1.7,1.6c-0.2-0.3-0.4-0.7-0.6-1c0.2-0.8,0.5-1.7,0.6-2.5
		c4.8-21.9,10.4-43.6,18.1-64.7c1.2-3.4,2.6-6.7,3.8-10.1c0.2-0.5,0.2-1.2,0.1-1.8c-4-13-9.4-25.3-17.1-36.6
		c-4.6-6.6-8.9-13.4-13-20.4c-9.6-16.4-16.9-33.9-22-52.3C7.9,242,5,228,3.9,213.6c-0.1-0.7,0.1-1.3,0.7-1.3c0.4,0,1.1,0.3,1.3,0.6
		c4.8,8.6,11.3,15.8,18.2,22.8c5.2,5.2,10.4,10.4,15.2,15.9c6.4,7.2,11.3,15.5,15.3,24.3c7.3,16.2,10.5,33.3,12.1,50.9
		c0.9,10.3,1,20.6,0.4,30.9c0,0.3,0,0.6,0.2,1c0.2-0.3,0.4-0.7,0.5-1c2-3.9,3.8-7.9,6.1-11.6c4-6.4,8.3-12.6,12.5-18.8
		c0.5-0.8,0.7-1.4,0.6-2.3c-1.3-18.9-5.2-37.3-9.9-55.6c-3-11.5-6.1-23.1-8.8-34.7c-4.1-17.8-4.3-35.7-1.8-53.7
		c1.5-10.6,3.7-21,7.4-31.1c0.2-0.6,0.4-1.3,1.3-1.2c0.9,0.1,1,0.8,1,1.5c0.8,9.5,3.2,18.7,6.2,27.8c3.4,10.1,7,20.2,10.3,30.4
		c8.5,26.2,10.1,52.9,5.6,80c-1.8,10.6-3.9,21.1-6.9,31.4c-0.1,0.3-0.4,0.6-0.6,0.9c0.2,0.1,0.3,0.1,0.5,0.2
		c0.2-0.1,0.3-0.3,0.5-0.4c7.8-9.2,15.5-18.3,23.2-27.5c0.4-0.5,0.7-1.2,0.6-1.8c-0.4-12.3-2.1-24.5-3.8-36.6
		c-2.8-19.5-5.2-39.1-6.3-58.8c-0.9-15.8-1-31.6,0.9-47.3c2.2-18.3,6.6-36.1,13.5-53.2c0.5-1.3,1.1-2.6,1.8-3.9
		c0.2-0.4,0.9-0.7,1.3-0.7c0.3,0,0.7,0.8,0.7,1.2c-1.2,15.6,1.7,30.8,5.2,45.8c3.2,13.9,6.5,27.8,8.6,41.9c5.1,35.2,0,69-14,101.5
		c-0.4,0.9-0.8,1.8-0.9,2.9c0.2-0.2,0.5-0.5,0.7-0.7c8.1-9.7,15.6-19.8,22.2-30.6c0.6-0.9,1.1-2,1.4-3c7.3-21.6,12.1-43.8,15.5-66.4
		c2.8-18.3,4.6-36.7,4.9-55.3c0.4-18.2,3.4-35.9,8.2-53.4c6.1-22.5,13.5-44.5,22.7-65.9c0.2-0.4,0.2-0.8,0.3-1.2
		c0.5-0.3,0.9-0.6,1.4-0.9C200.3,6.9,200.6,7.3,200.9,7.8z M120.5,99.8c0-0.1,0-0.1,0-0.2c0,0-0.1,0.1-0.1,0.1
		C120.5,99.8,120.5,99.8,120.5,99.8c-0.1,0.1-0.2,0.2-0.3,0.2c-0.1,0.2-0.2,0.3-0.4,0.5c0.1,0,0.3,0.1,0.4,0.1
		c0-0.2,0.1-0.3,0.1-0.5C120.5,100,120.5,99.9,120.5,99.8z M90.4,314c0,0.1-0.1,0.3-0.1,0.4c0,0,0.1,0.1,0.1,0.1
		c0.1-0.1,0.2-0.3,0.3-0.4c0-0.1,0-0.2,0-0.4C90.5,313.8,90.5,313.9,90.4,314z M117.6,283.8c0.1-0.2,0.1-0.3,0.2-0.5
		c0.1-0.5,0.2-0.9,0.3-1.4c2.8-14.7,3.9-29.6,4.2-44.5c0.3-18.9-0.8-37.7-2.5-56.5c-2.4-26.6-2.6-53.1,0.7-79.6c0-0.3,0-0.5,0-0.8
		c-0.1,0-0.2,0-0.3,0c-0.1,0.3-0.3,0.7-0.4,1c-6.4,17.8-10.4,36.2-11.9,55.1c-1.3,16-0.6,32,0.5,48c1.8,26.3,6.8,52.3,9.2,78.5
		C117.5,283.4,117.5,283.6,117.6,283.8c0,0.1-0.1,0.1-0.1,0.2c0,0,0,0,0.1,0.1C117.5,283.9,117.6,283.9,117.6,283.8z M152,241.5
		c0.1-0.2,0.2-0.3,0.2-0.5c0.2-0.3,0.3-0.5,0.5-0.8c8.1-14.7,14.9-30.1,20.3-46c6.7-19.8,11.2-40.1,14.9-60.6
		c5-27,7.8-54.2,9.4-81.5c0.7-12.4,1.4-24.8,0.9-37.2c0-0.3,0-0.5,0-0.8c-0.1,0-0.1,0-0.2,0c-0.1,0.2-0.1,0.4-0.2,0.6
		c-0.1,0.2-0.2,0.3-0.3,0.5c-7.9,19.9-14.9,40.1-20.4,60.8c-4.5,17.3-7.2,34.7-7.7,52.6c-0.9,29.7-4.7,59.1-11.3,88.1
		c-1.9,8.1-4.2,16.1-6.3,24.2c0,0.2-0.1,0.3-0.1,0.5c0,0.1-0.1,0.2-0.1,0.3C151.8,241.7,151.9,241.6,152,241.5z M73.9,156.3
		c-1.3,5.4-2.9,10.8-3.9,16.3c-3.8,19.8-4.3,39.7-0.1,59.5c2.4,11.4,5.6,22.7,8.5,34c3.3,13.1,6.7,26.2,8.6,39.7
		c0.4,2.5,0.7,5,1,7.6c0.3-0.4,0.4-0.8,0.4-1.2c0.1-7.8,0.4-15.6,0.1-23.3c-0.5-18.3-3-36.4-6-54.4c-3.6-21.3-6.5-42.6-7.7-64.2
		c-0.3-4.6-0.5-9.3-0.7-14c0-0.1,0-0.2,0-0.2C74.1,156.2,74,156.3,73.9,156.3z M65.1,354.6c0.1-2,0.2-3.9,0.2-5.9
		c0.2-16.4-0.9-32.6-4.6-48.6c-3-13-7.8-25.3-14.9-36.6c-5.1-8.1-11.6-15-18.4-21.8c-4.6-4.6-9-9.2-13.5-13.9
		c-1.5-1.6-2.9-3.5-4.3-5.2c2.1,5.5,4.4,10.9,6.8,16.3c4.9,11,10.6,21.7,17.3,31.8c11.1,16.8,19,35,24.5,54.2
		c2.8,9.8,4.9,19.7,6.6,29.7c0,0.1,0.1,0.2,0.1,0.3C65,354.8,65,354.7,65.1,354.6z M162.1,227.1c0.1-0.1,0.2-0.2,0.3-0.4
		c9.4-15.7,17.8-31.9,25-48.8c5.6-13.2,10.3-26.7,13.3-40.8c3.6-17.2,4.3-34.5,3.9-52c-0.3-14.2-2.1-28.3-4.1-42.4
		c0-0.2-0.1-0.5-0.2-0.8c-0.1,0.1-0.2,0.2-0.2,0.2c0,0.4-0.1,0.8-0.1,1.2c-1.7,36.5-5.8,72.8-13.5,108.6c-3.8,18-8.4,35.8-15.1,52.9
		c-3,7.5-6.4,14.8-9.6,22.2c-0.2,0.3-0.3,0.6-0.5,0.9c0.1,0,0.1,0.1,0.2,0.1C161.7,227.7,161.9,227.4,162.1,227.1z M251.9,148.1
		c-0.2,0.2-0.4,0.4-0.6,0.7c-6,7.6-12.3,14.9-17.8,22.8c-7.7,10.9-14.9,22.1-22.2,33.2c-9.1,13.8-18.6,27.3-29.8,39.5
		c-8.2,8.9-17,17.1-26.7,24.3c-3.3,2.5-6.8,4.8-10.4,7.4c0.5-0.2,0.8-0.2,1-0.3c5.3-2.8,10.6-5.4,15.8-8.3
		c13.2-7.3,25.9-15.4,37.4-25.3c9-7.7,16.8-16.5,23.1-26.7c6.1-10.1,10.8-20.8,15.2-31.8c4.8-11.9,9.1-24.1,15.4-35.4
		c0-0.1,0.1-0.2,0.1-0.4c0,0-0.1-0.1-0.1-0.1C252.1,147.8,252,148,251.9,148.1z M121.7,109.3c0,0.2-0.1,0.4-0.1,0.7
		c-1.7,18.3-2.3,36.7-1.1,55.1c0.9,13.2,2.2,26.5,3,39.7c1.6,26.4,1.4,52.8-3.6,79c0.3-0.3,0.6-0.7,0.7-1.1
		c1.7-4.2,3.5-8.3,5.1-12.5c9-24.4,13.2-49.5,11.4-75.5c-1-14.6-3.7-28.8-6.9-43c-3.2-14-6.9-27.9-8.3-42.3c0-0.1-0.1-0.2-0.1-0.2
		C121.8,109.2,121.8,109.2,121.7,109.3z M248.5,320.3c0,0-0.1-0.1-0.1-0.1c-2.5,0.9-4.9,1.8-7.4,2.7c-16,5.5-32.5,8.7-49.4,10.3
		c-12.8,1.2-25.7,2.1-38.5,3.4c-21.6,2.2-42.6,7.4-63.4,13.2c-0.3,0.1-0.5,0.3-0.7,0.4c5.3-0.1,10.6-0.3,15.8,0.3
		c8.3,0.8,16.5,2.1,24.8,3.3c13.7,2.1,27.4,2.8,41.2,1.4c19.6-2,37.9-7.9,54.9-18c6.3-3.7,12.2-7.8,17.8-12.4
		C245.2,323.3,246.9,321.8,248.5,320.3z M129.8,282c0.3-0.1,0.6-0.2,0.8-0.4c11.8-6.4,22.9-14,33.1-22.8c10.7-9.2,20-19.6,28.6-30.7
		c8.5-10.9,15.9-22.5,23.3-34.1c12.4-19.6,26.1-38.2,41.8-55.4c1.7-1.9,3.4-3.7,5.1-5.6c-0.5,0.1-0.8,0.3-1.2,0.5
		c-6,4.5-12.2,8.9-18.1,13.7c-13.3,11-24.7,23.6-34.4,37.9c-10.7,15.9-21.5,31.7-33.3,46.9C161.8,250,147,267.1,129.8,282z
		 M270.9,264.8c-0.3,0-0.3-0.1-0.4,0c-0.7,0.3-1.4,0.6-2.1,0.9c-11.9,5.3-24.1,9.7-36.5,13.3c-15.3,4.4-30.8,7.4-46.4,10.2
		c-13.1,2.3-26.2,4.8-38.9,8.8c-11.8,3.7-23.4,8-34.8,12.9c-1.7,0.7-3.4,1.5-5,2.2c3-0.4,5.9-0.9,8.8-1.4
		c10.1-1.7,20.3-2.2,30.6-2.9c21.3-1.3,42.2-5.1,62.6-11.7c12-3.9,23.5-8.9,34.7-14.9C252.9,277,262.1,271.2,270.9,264.8z
		 M104.4,311.8c7.2-2.9,14-5.8,20.9-8.5c11.9-4.7,23.9-8.9,36.4-11.6c10.9-2.3,22-4.3,33-6.3c23-4.2,45.5-9.9,67-19
		c1.5-0.6,3-1.3,4.4-1.9c-0.3-0.2-0.5-0.3-0.8-0.2c-8.4,1.7-16.9,2.5-25.4,3.2c-14.2,1.2-28.4,2.4-42.6,4.5
		c-21.9,3.2-42.5,10-62,20.5c-9,4.8-17.7,10.1-26.1,15.8C107.7,309.4,106.2,310.5,104.4,311.8z M77,351.4c0.4-0.1,0.7-0.2,1-0.2
		c7.1-2,14.3-4.2,21.4-6.1c16.6-4.5,33.3-8.4,50.4-10.1c13.1-1.4,26.3-2.3,39.4-3.6c16.3-1.5,32.3-4.3,47.8-9.4
		c1-0.3,1.9-0.6,3.1-1.1c-4.1,0.1-7.9,0.4-11.6,0.3c-9.6-0.3-19.1-0.9-28.6-1.3c-15.2-0.7-30.4,0-45.4,2.9
		c-13.8,2.7-27.3,6.7-40.5,11.3c-10.6,3.7-20.9,8-30.7,13.4C81.2,348.7,79.1,350.1,77,351.4z M62.2,353.3c0.1,0,0.2-0.1,0.2-0.1
		c0-0.4-0.1-0.7-0.1-1.1c-1.3-6.4-2.5-12.9-4.1-19.3c-4.6-18.7-11.3-36.5-21.3-53.1c-6-10-12.6-19.7-17.7-30.2
		c-3.2-6.7-6.3-13.5-9.4-20.2c-0.9-2-1.7-4.2-2.5-6.2c-0.2,0.5-0.1,0.9-0.1,1.4c1.2,6.5,2.3,13,3.8,19.5
		c4.4,19.7,11.5,38.5,20.8,56.4c5.2,9.9,11.4,19.2,17.6,28.4c3.9,5.8,7.4,11.8,10.1,18.3C60.4,349.1,61.3,351.2,62.2,353.3z
		 M90.5,313.5c0.1,0,0.2,0,0.3,0.1c0.1-0.4,0.2-0.8,0.3-1.2c1.6-7.5,3.4-15.1,4.7-22.7c2.7-15,3.7-30.2,2.3-45.5
		c-1.6-16.6-5.9-32.4-11.4-48.1c-3.3-9.4-6.9-18.6-9.4-28.3c-0.1-0.2-0.2-0.4-0.5-0.8c0,0.5,0,0.8,0,1.1c1,11.3,1.6,22.7,3,34
		c1.7,13.9,4.1,27.8,6.2,41.7c3.5,22.8,5.6,45.7,4.3,68.8C90.4,313,90.5,313.2,90.5,313.5z M103.1,309.9c0,0.1,0,0.1,0.1,0.2
		c0.1-0.1,0.3-0.2,0.4-0.3c0,0,0-0.1-0.1-0.1C103.4,309.7,103.3,309.8,103.1,309.9z M7.2,222.5c-0.1,0-0.1-0.1-0.2-0.1
		c0,0,0,0.1,0,0.1c0,0.1,0.1,0.1,0.1,0.2C7.1,222.6,7.1,222.6,7.2,222.5z M62.4,353.9c0,0,0.1,0,0.1-0.1c-0.1-0.1-0.1-0.2-0.2-0.3
		c0,0-0.1,0-0.1,0C62.3,353.7,62.4,353.8,62.4,353.9z M122.5,283.9c0,0-0.1,0-0.1-0.1c0,0,0,0.1,0,0.1c0,0,0.1,0.1,0.1,0.1
		C122.5,284,122.5,284,122.5,283.9z"/>
	<path class="st0" d="M162.1,227.1c-0.2,0.3-0.5,0.6-0.7,1c-0.1,0-0.1-0.1-0.2-0.1c0.2-0.3,0.3-0.6,0.5-0.9
		C161.9,227,162,227,162.1,227.1z"/>
	<path class="st0" d="M197.9,14.8c0.1-0.2,0.1-0.4,0.2-0.6c0.1,0,0.1,0,0.2,0c0,0.3,0,0.5,0,0.8C198.2,14.9,198,14.8,197.9,14.8z"/>
	<path class="st0" d="M103.1,309.9c0.1-0.1,0.3-0.2,0.4-0.3c0,0,0,0.1,0.1,0.1c-0.1,0.1-0.3,0.2-0.4,0.3
		C103.2,310,103.1,309.9,103.1,309.9z"/>
	<path class="st0" d="M120.4,100.1c0,0.2-0.1,0.3-0.1,0.5c-0.1,0-0.3-0.1-0.4-0.1c0.1-0.2,0.2-0.3,0.4-0.5
		C120.3,100.1,120.4,100.1,120.4,100.1z"/>
	<path class="st0" d="M7.1,222.5c0,0,0,0.1-0.1,0.1c0-0.1-0.1-0.1-0.1-0.2c0,0,0-0.1,0-0.1C7,222.5,7.1,222.5,7.1,222.5z"/>
	<path class="st0" d="M152.3,241.1c-0.1,0.2-0.2,0.3-0.2,0.5c-0.1,0-0.2,0-0.2-0.1c0-0.2,0.1-0.3,0.1-0.5
		C152,241,152.1,241,152.3,241.1z"/>
	<path class="st0" d="M117.7,283.3c-0.1,0.2-0.1,0.3-0.2,0.5l0,0c-0.1-0.2-0.1-0.4-0.2-0.6C117.5,283.3,117.6,283.3,117.7,283.3z"/>
	<path class="st0" d="M90.7,314.1c-0.1,0.1-0.2,0.3-0.3,0.4c0,0-0.1-0.1-0.1-0.1c0-0.1,0.1-0.3,0.1-0.4
		C90.5,314,90.6,314.1,90.7,314.1z"/>
	<path class="st0" d="M62.4,353.9c0-0.1-0.1-0.2-0.1-0.3c0,0,0.1,0,0.1,0c0.1,0.1,0.1,0.2,0.2,0.3C62.5,353.9,62.5,353.9,62.4,353.9
		z"/>
	<path class="st0" d="M251.9,148.1c0.1-0.1,0.2-0.3,0.3-0.4c0,0,0.1,0.1,0.1,0.1c0,0.1-0.1,0.2-0.1,0.4
		C252.1,148.1,252,148.1,251.9,148.1z"/>
	<path class="st0" d="M120.6,99.8c-0.1,0-0.1-0.1-0.2-0.1c0,0,0.1-0.1,0.1-0.1C120.5,99.7,120.5,99.7,120.6,99.8
		C120.5,99.8,120.6,99.8,120.6,99.8z"/>
	<path class="st0" d="M120.2,100c0.1-0.1,0.2-0.1,0.3-0.2c0,0,0,0,0,0c0,0.1-0.1,0.2-0.1,0.3C120.4,100.1,120.3,100.1,120.2,100z"/>
	<path class="st0" d="M121.7,109.3c0-0.1,0.1-0.1,0.1-0.2c0,0.1,0.1,0.2,0.1,0.2C121.9,109.3,121.8,109.3,121.7,109.3z"/>
	<path class="st0" d="M73.9,156.3c0.1-0.1,0.2-0.1,0.2-0.2c0,0.1,0,0.2,0,0.2C74.1,156.4,74,156.4,73.9,156.3z"/>
	<path class="st0" d="M152,241.5c-0.1,0.1-0.2,0.1-0.3,0.2c0-0.1,0.1-0.2,0.1-0.3C151.9,241.5,151.9,241.5,152,241.5z"/>
	<path class="st0" d="M117.6,283.8c0,0.1,0,0.1,0,0.2c0,0,0,0-0.1-0.1C117.5,283.9,117.6,283.9,117.6,283.8
		C117.6,283.8,117.6,283.8,117.6,283.8z"/>
	<path class="st0" d="M122.5,283.9c0,0,0,0.1,0,0.1c0,0-0.1,0-0.1-0.1c0,0,0-0.1,0-0.1C122.4,283.9,122.5,283.9,122.5,283.9z"/>
	<path class="st0" d="M90.4,314c0.1-0.1,0.2-0.2,0.2-0.3c0,0.1,0,0.2,0,0.4C90.6,314.1,90.5,314,90.4,314z"/>
	<path class="st0" d="M65.1,354.6c-0.1,0.1-0.1,0.2-0.2,0.2c0-0.1-0.1-0.2-0.1-0.3C64.9,354.6,65,354.6,65.1,354.6z"/>
</g>
</svg>
