<?xml version="1.0" encoding="utf-8"?>
<!-- Generator: Adobe Illustrator 27.9.0, SVG Export Plug-In . SVG Version: 6.00 Build 0)  -->
<svg version="1.1" id="Layer_1" xmlns="http://www.w3.org/2000/svg" xmlns:xlink="http://www.w3.org/1999/xlink" x="0px" y="0px"
	 viewBox="0 0 285.1 595.3" style="enable-background:new 0 0 285.1 595.3;" xml:space="preserve">
<style type="text/css">
	.st0{fill:#FFFFFF;}
</style>
<g>
	<path class="st0" d="M93.1,3c0.5,1.7,1.9,0.5,2.8,0.9c2.7,1.8,4.2,4.5,5.7,7.3c0.7,1.3,1.3,2.6,2.2,3.7c0.4,0.6,1.4,0.7,2.1,1.1
		c1.6-2.3,3.1-4.2,5.4-5.5c3-1.7,5.6-1.8,8.8-0.8c4,1.3,7.7,2.8,11,5.4c1.6,1.2,3.4,2.3,5.1,3.1c5.6,2.6,8.7,7.2,10.3,12.8
		c1.1,3.5,2.3,7,1.8,10.8c-0.3,2.5,1.2,4.7,0.9,7.3c-0.3,2.5-0.1,5.1-0.1,7.6s0,5,0,7.5c0.2,0,0.3,0,0.5,0c0.7-2.1,1.6-4.1,1.9-6.3
		c0.4-2.4,1.8-4.4,2.7-6.5c0.5-1.1,4.3-3.6,6.1-4.2c1.9-0.7,3.9-1.4,5.7-1.5c4.3-0.2,6.7-3,8.4-5.9c2.9-4.9,8-5.3,12.8-3.5
		c3,1.1,6,2,8.4,4.2c1.6,1.5,3.4,2.8,4.9,4.4c1.6,1.6,1.7,4.1,1,5.8c-1.1,2.5-0.4,4.9-0.8,7.6c2.2,0,4.1,0.1,6.1,0
		c5.7-0.4,10.8,1.4,15.7,4.1c1.4,0.7,2.2,1.6,2.5,2.8c0.7,2,1,4.2,1.5,6.5c1.4,0.9,2.3,2.5,2.8,4.4s0.9,3.7-0.4,5.5
		c-0.3,0.4-0.3,1.4,0,1.6c1.4,1.3,1.1,3.1,0.7,4.3c-0.8,2.2-1.9,4.3-3.5,6.2c-8.8,10.5-18.8,19.8-28.7,29.2c-4.6,4.4-9,9.2-14,13.3
		c-4.5,3.6-8.5,7.6-13.2,11c-3.4,2.4-6.8,4.9-10.1,7.5c-2.7,2.1-5.2,4.5-7.1,7.6c-1.2,2.1-3.4,3.6-4.8,5.7c-1.9,2.7-4.4,5-6.5,7.5
		c-1.1,1.2-1.9,2.6-3,4c10.3,21.1,17.9,43.3,23.5,67.1c0.2-1.5,0.2-2.3,0.4-3.1c0.2-0.9,0.7-1.7,0.8-2.6c0.3-3,2.4-11.2,3.7-14.2
		c1.2-2.8,2.5-5.5,3.8-8.2c2.1-4.4,4.8-8.3,7.8-12.1c2.4-3.1,5.2-5.8,7.9-8.6c1.3-1.4,2.9-2.5,4.5-3.6c0.4-0.3,1.1,0,1.7,0
		c1.3,5,1.6,10.1,1.2,15.2c-0.2,3-0.3,6.1-1,9c-0.7,2.8-0.8,5.7-2.1,8.5c-1.3,2.6-1.7,5.5-2.8,8.2c-2.4,5.5-5.1,10.9-9,15.4
		c-3.7,4.2-7.6,8.5-13.1,11.2c0.3,2.7,0.3,5.4,1.2,7.9c0.4,1.2,0.4,2.4,0.6,3.6c0.2,1.2,0.8,2.3,0.8,3.5c0,4.1,2.1,7.9,1.7,12
		c1.2,1.6,0.4,3.6,1,5.1c0.7,1.6,0.3,3.3,0.8,4.8c0.7,1.8,0.2,3.7,0.9,5.2c0.8,1.8,0,3.8,1,5.1c1.3,1.6-0.5,3.8,1.4,5
		c0,4.2,1.6,8.1,2.6,12.1c0.5,2.2,0.7,4.6,1.8,6.5c3,5.2,4.1,11.1,6.2,16.6c2,5.3,4.2,10.4,6.9,15.4c1.4,2.6,2.9,5.2,4.7,8.4
		c0.4-1.1,0.9-1.8,0.8-2.1c-1.3-2.9-1-6.3-2.4-9.2c-0.1-0.2-0.1-0.6,0-0.8c0.4-2.4-0.6-4.6-0.8-6.9s0-4.5,0-6.8
		c0-3.1,0.2-6.3-0.1-9.3c-0.3-3.4,0.5-6.6,1-9.8c0.5-2.9,0.5-6.1,2.3-8.8c0.1-4,2.3-7.3,3.6-10.9c1.2-3.4,2.8-6.8,4.6-10
		c2.6-4.8,5.3-9.5,8.7-13.8c2.7-3.4,5.5-6.9,8.4-10.1c3.2-3.4,6.5-6.7,9.9-9.9c4.4-4.3,9-8.4,13.5-12.6c3-2.8,5.6-6,7.9-9.5
		c0.8-1.1,1.9-2,3.2-3.3c0.7,1,1.4,1.7,1.6,2.5c1.2,4.5,3.5,8.7,3.4,13.5c1.7,1.9,0.1,4.5,1.1,6.3c1.2,2.1,0.5,4.1,0.6,6.1
		c0.2,4.1-0.1,8.2,0.1,12.3c0.3,8.4-2,16.3-4.5,24.1c-1.8,5.7-4.4,11.2-7.5,16.4c-4.3,7.4-9,14.5-14,21.4
		c-4.8,6.5-9.8,12.9-14.4,19.5c-2.9,4.1-5.6,8.4-8.2,12.7c-2.1,3.5-3.9,7.2-5.3,11c-0.7,1.9-1.4,4-1.4,6.2c0,1.2,0.4,2.1,0.9,3
		c3.1,5,6.2,9.9,9.3,14.9c2.6,4.3,5.1,8.7,7.9,12.9c3.6,5.4,6.6,11.2,9.7,16.8c2.7,4.9,5.6,9.8,7.2,15.3c0.6,2,1.9,3.7,3.3,6.2
		c-0.6-24.6,7.4-45.6,22.8-64.2c0.3,0,1,0,1.7,0c1,5.7,2.2,11.3,2,17.1c0,0.2,0.5,0.4,0.8,0.7c0,1.4,0,2.8,0,4.3
		c-0.3,0.3-0.8,0.6-0.8,1c-0.1,0.8,0,1.6,0,2.4c0,1.4-0.1,2.7,0,4.1c0,0.4,0.5,0.7,0.8,1c0,0.6,0,1.1,0,1.7c-1.2,1.6-1.2,3.5,0,5.1
		c0,2.6,0,5.1,0,7.7c-1.4,0.2-0.9,1.3-0.8,1.9c0.3,4.7-1.8,9.1-1.7,13.7c-1.7,3.2-2,6.8-3.5,10s-3,6.5-5.1,9.3
		c-2.1,2.7-5.1,4.9-7.7,7.3c0.4,3.1,0.2,6,1.3,8.3c0.9,1.8-0.4,4,1.4,5.4c0.3,3,0.6,6,0.9,9c0.3,2.7,0.7,5.4,0.8,8.1
		c0.1,2.8,0.1,5.7,0,8.5c-0.1,2-0.5,4-0.8,6c-0.3,1.9,0.7,3.9-0.8,5.6c0.3,4.7-2,8.9-2.5,13.4c-0.4,2.8-1.7,5.3-2.8,7.8
		c-2.4,5.4-4.5,10.9-7.3,16.1c-3.2,5.9-6.6,11.6-10.8,16.7c-0.3,0.4-0.4,1-0.6,1.5c-0.6,0-1.3,0-2.3,0c0.2-0.9,0-1.9,0.5-2.3
		c3-3,4.8-6.8,7.2-10.2c2.8-4,4.6-8.6,6.9-12.8c3.3-6,5.3-12.6,7.3-19c1.1-3.4,1.5-7.1,2.1-10.6c0.5-3,0.1-6.1,0.9-9
		c1.1-4,0.6-8,0.7-12c0.1-2-0.5-4-0.8-6s0.8-4.2-0.8-6c0.5-2.7-0.3-5.2-0.9-7.7c-0.9-3.7-1.1-7.6-3.3-11c-1.1-1.7-1.2-4-1.8-6
		c-0.9-3.3-1.3-6.9-2.8-9.9c-1.1-2.2-1.8-5.2-4.9-6c-2.7-3.4-6.9-4.4-10.5-6.4c-2.4-1.3-5-1.5-7.5-2.4c-2.7-1-5.8-1-8.6-1.8
		c-4.6-1.4-9.4-1.6-13.9-3.2c-2.2-0.8-4.6-1.4-6.9-1.8c-6.1-1-11.5-3.7-16.9-6.3c-5.5-2.7-10.6-6.2-15.4-10c-3.6-2.9-7-6.1-10-9.5
		c-5.8-6.6-11.4-13.3-15.7-21.1c-1.9-3.3-3.6-6.7-5.4-10.1c-0.4-0.7-0.4-1.5-0.7-2.8c1.3,0.4,2.2,0.5,3,0.9c4.5,2,8.9,4.4,13.9,5.5
		c3.3,0.8,6.6,1.9,10,2.5c3.8,0.7,7.6,1.6,11.2,2.7c5.1,1.6,10.3,2.9,15.4,4.8c10,3.7,15.8,6.1,22.3,10.7c7.1,5,13.1,11.3,19.1,17.5
		c2.1,2.1,3.6,4.7,5.5,7c0.4,0.4,1.2,0.4,2.2,0.6c0.1,0-0.2,0-0.4,0c0.1,0.8,0.2,1.7,0.3,2.5c0.2,0,0.4,0,0.6-0.1
		c0-0.8-0.1-1.7-0.5-2.5c-0.5-0.6-0.6-1.3-1-1.9c-4.2-7-8-14.3-12.5-21.2c-4.7-7.1-9.4-14.2-13.8-21.5c-4.9-8.2-10-16.4-14.4-25
		c-2.4-4.7-4.5-9.5-6.9-14.2c-1.6-3.1-3.8-4.8-6.6-6.5c-6.5-3.7-13.4-6-20.7-7.6c-4.2-0.9-8.3-1.8-12.5-2.5c-4-0.7-8-1.8-12-2.8
		c-4.1-1-8-2.5-11.9-4c-3.8-1.5-7.5-3.3-11-5.3c-2.9-1.6-5.6-3.7-8.3-5.7c-1.9-1.4-3.6-3-5.4-4.5s-3.8-2.8-5.3-4.5
		c-3.5-4.1-7.3-7.9-10.6-12.1c-2.2-2.8-4.4-5.5-6.5-8.4c-3.5-4.9-7-9.8-10.2-14.9c-4.4-7.1-8.4-14.3-12-21.8
		c-2.2-4.5-4.1-9.1-5.6-13.8c-0.5-1.6-1.9-2.9-1.8-5.1c1.2,0.1,2.3-0.1,3.2,0.3c5.2,2.3,10.5,4.1,15.9,5.8c4,1.2,8.2,2.2,12.2,3.2
		c6.5,1.7,13,3.3,19.4,5.4c8,2.6,15.7,5.9,23.1,10c4.8,2.6,9.3,5.7,13.7,8.9c2.8,2.1,5.2,4.6,7.7,6.9c1.1,1,2.5,1.7,3.5,2.7
		c2.8,2.9,5.7,5.8,8.1,9c2.3,3.1,4.8,6.2,7.1,9.3c2.8,3.8,5.4,7.7,8,11.6c2.1,3.3,4.1,6.7,6.1,10.1c0.7-2.4-0.7-4.4-1-6.6
		c-0.1-0.6-0.5-1.3-0.5-1.9c-0.1-2.7-1-5.2-1.5-7.9c-0.4-2.2-0.7-4.5-1.1-6.8c-0.6-4.1-1.5-8.2-1.9-12.4c-0.2-2.3-0.9-4.7-1.5-7
		c-0.6-2.4-0.4-4.9-1-7.3c-2.1-8.1-3.4-16.3-5.6-24.4c-1.3-4.8-2.8-9.7-3.7-14.6c-0.3-1.7-1.2-3.2-1.6-4.8c-1.1-3.6-2-7.4-3.4-10.9
		c-1.7-4.3-3.3-8.6-4.9-12.8c-2.5-6.8-5.6-13.3-9-19.8c-2.8-0.7-5.9-1.5-8.9-2.3c-2.7-0.7-5.4-1.4-8-2.3c-2.6-0.9-5.4-1.3-7.9-2.5
		c-0.2-0.1-0.6,0-0.8,0c-5.3,0.6-10.5-1.2-15.8-0.8c-2.3,0.2-4.3-0.9-6.4-1c-2-0.1-4,0.2-6.1-0.7c-1.9-0.8-4.4,0.2-6.4-1
		c-7.6-0.2-14.7-2.8-22-4.4c-5.2-1.2-10.1-3.5-15.1-5.5c-4.4-1.7-8.8-3.4-13-5.5c-4.4-2.3-8.4-5.1-12.2-7.4
		c-1.1-3.4,2.3-5.4,1.3-8.3c-2.1-2.1-4.3-4.4-6.6-6.5c-2.3-2.2-4-4.7-4.5-7.9c0-0.1-0.5-0.2-0.7-0.3c0-1.7,0-3.4,0-5.1
		c0.1,0,0.4,0,0.4,0c0.6-2.7,1.9-5,4.5-6.9c1.8,0.1,3.9,0,5.9,0.4c2.4,0.5,4.7,1.5,7.1,2.2c0.5,0.1,1.1-0.2,2.2-0.5
		c-1-1-1.5-1.6-2.1-2.2c-3.7-3.7-7.4-7.4-11.1-11.1c-1.3-1.4-2.5-2.8-3.6-4.1c0-2.5,0-4.6,0-6.7c0-0.8,0-1.7,0.3-2.4
		c0.9-2.7,2-5.4,3-8.1c1.3-3.6,1-7.3,1-11c-1.6-1.8-1.1-4.1-0.7-6c0.6-2.7,0.8-6,4.2-7c1.8-0.5,3.5-1.1,5.4-1.3
		c4.1-0.3,7.9,1.1,12,1c1.3,0,9.2,2.7,10,3.4c3.4,2.8,6.9,5.4,10.1,8.4c4.6,4.2,8.9,8.6,13.7,12.9c0.1,0-0.2,0-0.4,0
		c0.1,0.6,0.2,1.1,0.3,1.7c0.2,0,0.4,0,0.5-0.1c0-0.5-0.1-1.1-0.5-1.6c-0.3-0.7-0.1-1.5-0.4-2.1c-1.5-3.3-3.3-6.6-4.7-9.9
		c-1.7-3.8-3.1-7.8-4.6-11.7c-1.1-3-1.8-6.1-2.8-9C51.8,43,50.9,38.6,51,34c0-5.9,3.6-8.7,8.6-9.8c4-0.9,8,0,11.7,2.5
		c0.3-1.4,0.6-2.7,1-4c1.1-3.3,2-6.7,4.9-9c1.5-1.2,2.8-2.8,4.5-3.5c1.8-0.7,2.9-2.3,4.6-3.3c2-1.2,3.8-2.5,6.2-2.6
		c0.1,0,0.2-0.5,0.3-0.7C92.5,3,92.8,3,93.1,3z M230.9,440.7c-0.1,0.1-0.1,0.1-0.2,0.2c0.2,0.2,0.4,0.5,0.6,0.7
		c0.1-0.1,0.2-0.2,0.3-0.3c-0.2-0.2-0.5-0.4-0.8-0.4C230.8,440.8,230.8,440.8,230.9,440.7c-0.2-0.2-0.4-0.5-0.6-0.7
		c-0.1,0.1-0.2,0.2-0.3,0.3C230.3,440.5,230.5,440.7,230.9,440.7z M101.5,140.8c0.1-0.1,0.1-0.1,0.2-0.2c-0.2-0.2-0.4-0.5-0.6-0.7
		c-0.1,0.1-0.2,0.2-0.3,0.3c0.2,0.2,0.5,0.4,0.8,0.4C101.6,140.7,101.6,140.7,101.5,140.8c0.2,0.2,0.4,0.5,0.6,0.7
		c0.1-0.1,0.2-0.2,0.3-0.3C102.1,141,101.9,140.8,101.5,140.8z M118.5,143.3c0.1-0.1,0.1-0.1,0.2-0.2c-0.2-0.2-0.4-0.5-0.6-0.7
		c-0.1,0.1-0.2,0.2-0.3,0.3c0.2,0.2,0.5,0.4,1.4,0.5C119,143.2,118.8,143.3,118.5,143.3c0.1,0.5,0.2,1,0.3,1.6c0.2,0,0.4,0,0.5-0.1
		C119.4,144.3,119.3,143.8,118.5,143.3z M79.4,100c0.1-0.1,0.1-0.1,0.2-0.2c-0.2-0.2-0.4-0.5-0.6-0.7c-0.1,0.1-0.2,0.2-0.3,0.3
		c0.2,0.2,0.5,0.4,0.5,0.6c0.3,0.9,0.4,1.8,0.9,2.6c1.3,2.3,3,4.4,4.1,6.8c1.8,3.7,4.2,7,6.4,10.5c3.3,5.4,7.2,10.4,10.9,15.5
		c3.5,4.8,7.2,9.5,11,14.1c2.2,2.7,4.9,5,7.3,7.4c1.5,0.1,2.6-0.2,3-1.6C110.3,135.3,96.1,116.9,79.4,100z M9.7,129.7
		c0.1-0.1,0.1-0.1,0.2-0.2c-0.2-0.2-0.4-0.5-0.6-0.7c-0.1,0.1-0.2,0.2-0.3,0.3c0.2,0.2,0.5,0.4,0.5,0.1c2.8,4.4,7.9,6.4,9,11.8
		c-1,0.8-2,1.6-2.8,2.2c0,1,0,1.5,0,2.2c0.4,0.1,0.9,0.1,1.1,0.3c7.3,5.6,15.9,8.7,24.1,12.7c2.7,1.3,5.8,1.6,8.7,2.7
		c3,1.1,6.1,1.6,9.1,2.7c2.9,1,6.1,0.7,8.8,2.4c1.9-0.5,3.5,1,5.2,0.8c2-0.3,3.7,1.1,5.6,0.9c1.8-0.2,3.5,0.5,5.2,0.8
		c4.4,0.6,8.8,0.7,13.2,0.9c0.6,0,1.3-0.2,1.7,0c2.9,1.7,6,0.3,8.6,0.8c1.3-1.6,2.3-3,3.5-4.5c-0.7-0.6-1.1-1.4-1.7-1.4
		c-4-0.3-7.8-1.8-11.7-2.7c-4.3-0.9-8.4-2.3-12.6-3.3c-6.9-1.8-13.7-3.7-20.5-6c-4.7-1.6-9.5-3-14.1-5c-4.7-2-9.5-3.7-14.1-6
		c-7.8-3.8-15.5-7.6-23.3-11.4C11.7,129.9,10.8,129.7,9.7,129.7z M178.8,337c-0.2,0-0.5,0-0.7,0c0.1,0.6,0.2,1.1,0.3,1.7
		c0.2,0,0.4,0,0.5-0.1c0-0.5-0.1-1.1-0.9-1c0.4-3.4-0.9-5.8-2-8.2c-4.3-9.1-9-17.9-14.9-26.1c-1.6-2.3-3.4-4.6-5.1-6.8
		c-2.5-3.3-4.8-7-7.7-9.9c-5.4-5.5-10.5-11.3-16.7-16c-5-3.9-10.2-7.4-15.7-10.4c-4.6-2.5-9.4-4.5-14.3-6.4
		c-6.8-2.6-13.7-4.5-20.7-6.5c-5-1.4-10-2.4-15-3.7c-3.1-0.8-6.2-1.5-9-2.8c-1.4-0.6-2.4-0.6-4-0.3c2,1.6,3.8,2.9,5.4,4.4
		c3.2,3.1,7,5.5,10.6,8.1c4.1,3,8.4,5.6,12.7,8.4c4.2,2.8,8.7,5.1,13.1,7.5c6.6,3.6,13.2,7.1,19.7,10.7c3.6,2,7,4.3,10.6,6.2
		c7.7,4.1,14.4,9.5,20.8,15.2c7.7,6.9,14.8,14.4,21.2,22.5C170.5,328.1,174.2,332.5,178.8,337z M103.7,18.3
		c-1.1-1.1-2.1-1.9-2.8-2.9c-0.8-1.2-1.3-2.6-1.8-3.9c-1.2-3.1-3.3-5.1-6.7-6.1c-2.3,1.3-4.7,2.4-6.8,4c-1.5,1.1-2.8,2.4-4.7,3.1
		c-1.2,0.4-2.4,1.4-3,2.4c-1,1.7-2.4,3.1-2.7,5.3c-0.4,2.7-1.6,5.3-2.3,7.5c0.9,2.7,1.7,5,2.4,7.4c2.6,8.4,5.7,16.6,8.9,24.8
		c2.2,5.6,4.6,11.1,6.9,16.7c3.1,7.3,6.3,14.6,9.5,22c2.7,6.3,5.5,12.4,8.4,18.6c2.8,6.1,5.8,12.1,8.7,18.1c3,6.1,6,12.3,9.1,18.6
		c1.5-0.4,3-0.8,4.6-1.2c0-1.2,0-2.1,0-3.1c0-3.5,0-7.1,0-10.6c0.1-3.5-0.9-6.8-1-10.3c-0.1-7.2,0.8-14.5-0.6-21.8
		c-0.7-3.5,0-7.3-0.2-11c-0.1-3.7-0.5-7.4-0.8-11.1c-0.2-2.6,0.3-5.1-0.7-7.8c-0.7-1.9,0-4.2-0.2-6.3c-0.1-2.2-0.8-4.3-0.8-6.4
		c0.1-3.9-1.6-7.6-0.9-11.5c-1.2-2-0.3-4.4-1-6.4c-0.6-1.5-0.5-2.9-0.7-4.4s-0.6-2.9-0.8-4.3c-0.3-2.7-0.1-5.6-1-8.1
		c-0.7-1.9-0.1-4-0.9-5.5c-0.7-1.3-0.4-2.4-0.6-3.6c-0.3-1.3-0.7-2.6-0.8-3.9c-0.1-1.8,0-3.5-1.3-4.7c-4.1-1-6.8,1.5-9.6,3.6
		C108.6,18.1,106.3,18.4,103.7,18.3z M50.6,241.6c0,1.2-0.2,2,0,2.3c1.4,2,2,4.3,3,6.4c3.7,8.2,7.9,16,12.7,23.6
		c5.7,9.2,12,18,19.2,26c7.1,7.8,14.4,15.4,23.5,21.1c5.5,3.4,11.2,6.4,17.4,8.4c3.4,1.1,6.8,2.2,10.2,3c4.7,1.1,9.4,2,14.1,2.9
		c1.8,0.4,4.1,0,5.5,1c1.8,1.3,4-0.3,5.4,1.5c3.1,0.3,6,1.3,8.7,2.7c2.7,1.3,6,1.5,8.2,3.9c0.1,0.1,0.4-0.1,0.6-0.1
		c0-0.6,0-1.1,0-1.7c-1.6-2-3.6-3.8-5-6c-4.3-7-9.8-13.1-15.2-19.1s-11-11.9-17.5-17c-3.7-2.9-7.3-6-11.3-8.6
		c-3.3-2.2-6.6-4.5-10-6.6c-2.8-1.7-6-2.8-8.7-4.6c-4.3-2.9-9-5-13.5-7.5c-3.7-2-7.4-4-11-6.1c-5.5-3.2-11-6.5-16.2-10.1
		c-5.7-4-11.4-7.9-16.4-12.8C53.2,243.3,52.1,242.6,50.6,241.6z M118.4,158.7c-3.6-3.3-6.6-6.4-10-8.9c-5.1-3.8-9.4-8.3-14.5-12.1
		c-2.7-2-4.9-4.5-7.5-6.5c-4.9-3.9-10.1-7.4-14.7-11.5c-4.9-4.4-10.4-7.9-15.6-11.8c-5.7-4.3-11.9-8-17.9-12.1
		c-5.2-3.5-10.6-6.6-15.8-10c-3.3-2.1-6.9-3.8-10.4-5.7c-1.6,5.2-4,9.9-2.7,15.8c0.8,0.9,1.8,2.3,3.1,3.6c3.8,3.8,7.6,7.6,11.4,11.4
		c1.6,1.6,2.6,3.4,2.1,5.9c-3.2,0.6-6.2-0.2-9.2-1.2c-2.7-0.9-5.4-1.7-8.3-1.1c-2.9,2.4-2.9,5.6-2.7,9.3c1.6,0.9,3.2,1.8,4.9,2.7
		c5.7,2.9,11.3,6.1,17.2,8.6c5.9,2.6,11.5,5.6,17.5,8.1c4.5,1.9,9,3.5,13.6,5.1c6.8,2.4,13.7,4.7,20.7,6.3c3.9,0.9,7.6,2.2,11.5,3.1
		c2.9,0.7,5.9,1.5,8.8,2.3c4.4,1.2,8.7,3,13.2,2.7C114.6,161.5,116.3,160.3,118.4,158.7z M213,60.8c-2.8,0-5.4,0-8.1,0
		c-1.9,0-3.8,0-5.4-1.2c-1.3-2.8-1.6-5.5-0.4-8.3c0.8-2.1,0.3-4.1-1-5.7c-1.5-1.9-3.2-3.8-6-4.4c-0.4,0.9-0.8,1.8-1.3,2.8
		c-12,23.9-24.2,47.7-35.7,71.8c-1.7,3.5-3.4,7.1-4.8,10.8c-3.1,8.1-6.6,16-9.4,24.3c3.5,0,6.8,0,10,0
		C177.2,124.7,196.6,94,213,60.8z M258.2,245.5c-0.3,2.4-0.5,4.1-0.9,5.8c-1.5,6.3-3.6,12.4-6.3,18.2c-2.1,4.5-4.4,8.9-6.9,13.3
		c-2.5,4.3-5,8.7-7.5,13c-2.4,4.1-5.1,8.1-7.7,12.1c-2.6,4.2-5.2,8.3-7.6,12.6c-5.9,10.3-7.9,14.5-11.1,24.7c-1.4,4.5-2.6,9-3,13.5
		c-0.4,4.4-0.9,8.8-1,13.2c0,2,0.6,4,0.8,6c0.2,2.2,0.3,4.4,0.4,6.6c0.6-0.3,2-1.8,2.2-2.3c1.5-5.5,4.7-10.3,7.7-15.1
		c2.9-4.7,6.7-8.8,9.7-13.4c3.8-5.7,8.1-11,12-16.6c4.2-6.1,8.4-12.3,11.8-18.9c2.5-4.8,5-9.5,6.8-14.6c1.8-5,3.5-10,3.9-15.4
		c0.2-2,1-4,0.7-6c-0.4-2.2,0.8-4,1-6c0.5-5.5-1.3-10.8-0.9-16.2c0-0.3,0.1-0.6-0.1-0.8c-1.2-2-1.2-4.4-1.5-6.6
		C260.3,250.3,259.4,248.3,258.2,245.5z M99.7,137.1c-2.2-3.1-4.5-6.1-6.6-9.2c-2.2-3.3-4.2-6.8-6.5-10c-5.5-8-9.6-16.7-14.5-25
		c-1.6-2.8-3.3-5.6-5.5-7.9c-5.9-6.1-11.9-12.1-18-18c-2.7-2.6-5.6-5.1-9.1-6.7c-2.4-1.1-5-1.6-7.6-2.2c-4.4-1.1-8.8-1.6-13.3-1.5
		c-4.3,0.1-6.2,1.9-6.1,6.2c0.1,3.4,0.6,6.8,0.8,10.3c0.1,1.5,0,3.1,0,4.7c1.1,0.7,2.1,1.3,3.2,2c4.9,2.9,9.8,5.7,14.6,8.7
		c5.4,3.4,10.6,7.2,16,10.6c8.8,5.5,17.1,11.6,25.3,17.9c4.2,3.2,8.2,6.7,12.4,10c4.8,3.8,9.2,8,13.8,11.9c0.3,0.2,0.7,0.2,1.3,0.3
		C99.7,138.3,99.7,137.6,99.7,137.1z M204,381.4c0.2-0.4,0.4-0.6,0.5-0.8c0.3-7.7-0.4-15.3,0.7-23c0.6-3.9,1-7.9,2.1-11.5
		c2.1-7,4.7-13.9,8.3-20.3c3.7-6.8,7.7-13.5,11.9-20.1c3-4.7,5.9-9.5,8.8-14.2c2.8-4.5,5.5-9.1,8.1-13.7c4.2-7.6,7.5-15.6,9.8-24
		c0.7-2.4,2.1-4.9,0.9-7.7c-1.8,2.2-3.4,4.3-5.3,6.1c-5.3,5.2-10.8,10.2-16.1,15.4c-4.8,4.7-9.7,9.3-13.8,14.6c-1,1.3-2,2.6-3,3.9
		c-0.2,0.3-0.3,0.7-0.5,1.1c-2.6,3.7-5.1,7.4-7.1,11.5c-1,2-2.5,3.8-3,6c-0.6,2.2-2.3,3.8-2.6,6.2c-0.2,1.4-1.3,2.6-1.6,4
		c-0.8,3.6-2.8,7-2.6,10.8c-1.8,1.3-0.5,3.3-1.3,5c-0.8,1.6-0.3,3.8-0.5,5.8c-0.2,1.7-0.7,3.4-0.8,5.2c-0.2,2.2,0.4,4.3,0.7,6.5
		c0.5,3.8-0.1,7.7,0.9,11.5c0.6,2.2,0.2,4.8,1,6.8c1,2.5,1.1,5.2,2.1,7.6C202.6,376.2,203.2,378.8,204,381.4z M70.7,28.7
		c-1.4-0.6-3.1-1.1-4.4-2.1c-1.9-1.3-3.8-0.4-5.7-0.6c-3.3-0.3-7.4,3.4-7.4,7.2c0,2.9-0.2,5.7,0.8,8.6c1.4,4.4,1.8,9.2,3.6,13.4
		C60.9,63,64,71,68,78.5c2.7,5.2,4.6,11,9.6,14.7c1,2.6,3.4,4,5.1,6s3.4,4,5.1,5.9c2.5,2.8,5.2,5.4,7.5,8.4c3.4,4.4,7,8.7,10.5,13
		c1.3,1.6,2.4,3.2,3.6,4.9c2.2,3.2,4.4,6.4,6.6,9.5c0.3,0.4,1,0.5,2.2,1c-1.4-3.2-2.4-5.7-3.5-8.2c-4.4-9.3-9.1-18.6-13-28.1
		c-2.1-5.1-4.7-9.9-7-14.9c-1.1-2.2-2.2-4.5-3.1-6.8c-1.9-5.3-4.3-10.4-6.5-15.6c-1.6-3.9-3.1-7.8-4.6-11.7
		c-1.6-4.2-2.9-8.5-4.6-12.5C73.6,39.1,72.7,33.8,70.7,28.7z M237.7,451.3c-4.7-4-8.4-8.8-13.3-12.5c-2.9-2.2-5.7-4.6-8.7-6.8
		c-5.6-4-11.5-7.7-17.6-10.7s-12.1-6.3-18.8-7.9c-2.2-1.9-5.1-2.3-7.6-3c-2.8-0.8-5.5-2-8.2-2.9c-6.7-2.2-13.4-4.9-19.1-9.2
		c-0.9-0.7-2.1-1.1-3.1-1.7c-1-0.7-1.6-1.9-3.3-2.7c0.3,1,0.4,1.4,0.6,1.7c4.7,7.7,9.8,15.2,15.9,21.8c4.5,4.9,9.4,9.4,14.9,13.3
		c6.8,4.7,14.2,8,21.8,10.9c2.5,0.9,5.3,1.1,7.7,1.9c4.4,1.6,9.1,2,13.6,3.1c3.1,0.7,6.3,1.1,9.5,1.8c5.1,1.2,10.2,2.7,14.9,5.1
		c0.2,0.1,0.5-0.2,0.8-0.3C237.6,452.7,237.6,452.2,237.7,451.3z M215.1,61.6c-5.4,10.9-11.1,21.3-17,31.6
		c-6.1,10.4-12.7,20.4-19.8,30c-7.3,10-16,18.8-23.9,28.2c1.5,2.2,3.7,0.9,5.4,1.3c0.8-0.8,1.4-1.6,2.2-2.2
		c5.3-3.3,9.8-7.7,14.8-11.5c3.9-3.1,7.4-6.8,11.1-10.2c4-3.7,7.8-7.6,11.9-11.2c8.6-7.9,16.8-16.2,24.4-25.1
		c2.4-2.7,2.7-4.1,2.4-8.5c-0.1-0.9,0.1-1.9,0.4-2.8c1-2.7,0.5-5.1-1.2-7.2c-1.2-1.4-1.7-3-1.8-4.8c-0.2-2.7-1.1-5.1-4.3-5.9
		C218.2,62.9,216.7,62.2,215.1,61.6z M122.6,12.8c0.4,4.1,0.8,7.6,1.2,11.1c1.3,1,0.5,2.3,0.7,3.5c0.3,1.3,0.7,2.6,0.8,3.9
		c0.4,3,0.2,6.1,1,8.9c0.6,2.1,0.1,4.2,0.8,6c0.9,2.1,0.6,4,0.7,6.1c0,0.3-0.1,0.7,0,0.8c1.3,1.7,0.9,3.7,0.8,5.6
		c-0.2,2,0.8,3.7,0.9,5.6c0.2,2.6,0.2,5.1,0.7,7.7c0.7,3.6,0.3,7.4,0.9,11.1c0.7,4.3,0,8.8,0.8,13.2c0.8,4,0,8.2,0.2,12.3
		c0.2,4,1.1,7.9,0.9,12c-0.2,4.9-0.1,9.8-0.1,14.8c0.7,0,1.1,0,1.7,0c0-1.9-0.7-4.1,0.2-5.4c1.4-2-0.5-4.6,1.5-6.2
		c-0.5-2.2,0.7-4.3,0.8-6.4c0.1-3.8,2-7.3,1.7-11.2c1.4-2.1,1-4.7,1.7-6.9c0.7-2.3,1.1-4.6,1.7-6.9c1.1-4.1,2.1-8.2,3.1-12.3
		c1-4.2,2.6-8.3,2-12.8c-0.2-2.2-0.4-4.3-0.7-6.5c-0.5-3.2,0-6.5-0.2-9.7c-0.1-3.3-0.7-6.6-0.8-9.8c0-3.6-1-6.9-1.8-10.3
		c-0.9-3.8-3.2-7-6.4-9.2C133.1,18.6,128.1,16,122.6,12.8z M144,135.5c0.8-1.4,1.5-2.2,1.8-3.1c2-6.7,4.9-13,7.9-19.2
		c9.3-19.5,19.2-38.7,28.9-58c2.5-5,5.1-10,7.6-15c-3.1-2.8-6.6-2.2-9.9-2.3c-1,0.6-2,1.1-2.7,1.9c-0.7,0.7-1.2,1.8-1.8,2.6
		c-1.1,1.4-2,3-3.4,4c-2.3,1.6-5.1,2.1-7.8,2.6c-7.1,1.5-7.9,1.7-10.3,8.3c-1.6,4.4-2.2,9.2-4.2,13.5c-0.7,1.4-0.8,3.1-0.9,4.7
		c-0.1,4.1-0.3,8.2,0,12.3c0.3,4.2-1.3,8.2-0.9,12.4c0.3,3.9-1.5,7.6-0.9,11.5c0,0.1,0.1,0.4,0,0.4c-1.2,1.1-0.7,2.6-0.9,3.9
		c-0.2,1.5-0.6,2.9-0.8,4.3c-0.3,2.8-0.6,5.7-0.9,8.6c0,0.4-0.6,0.7-0.6,1C144.4,131.5,142.5,132.9,144,135.5z M255.5,480.5
		c0.2,0.1,0.4,0.2,0.7,0.4c2.1-2.5,4.5-4.9,6.3-7.7c1.6-2.4,3.3-4.7,4.1-7.6c1.5-5.5,4.3-10.6,4.2-16.5c1.6-1.8,0.1-4.3,1-5.9
		c1.2-2.2,0.7-4.4,0.7-6.5c-0.1-9.4,0.5-18.7-0.7-28.1c-0.3-2.3-0.2-4.7-1.4-7c-2.4,5.8-4.5,11.4-6.3,17.2
		c-1.3,4.2-2.4,8.4-3.2,12.6c-0.7,3.9-2.3,7.8-1.9,12c-1.9,2.8-0.3,6.1-1.6,9.1c-0.9,2.1,0,4.8-0.9,7.3c-0.6,1.6,0,3.6-0.1,5.5
		c-0.1,1.7-0.7,3.4-0.8,5.2C255.4,473.7,255.5,477.1,255.5,480.5z M140,392.6c0.7,0.5,1.4,1,2.1,1.5c5.7,3.9,11.7,7.1,18.1,9.7
		c5.6,2.2,11.4,4,17,6.2c4.5,1.8,9.1,3.3,13.5,5.3c5.5,2.5,10.9,5.2,16.1,8.3c7.4,4.5,14.7,9.1,20.9,15.2c0.2,0.2,0.7,0.2,1.3,0.3
		c0-0.8,0-1.5,0-2c-1.8-2.2-3.6-4.5-5.5-6.7c-3-3.2-6.1-6.3-9.3-9.3c-1.7-1.6-3.5-3-5.3-4.5c-0.4-0.3-1.1-0.3-1.4-0.6
		c-2.1-2-4.7-3-7-4.6c-4.2-2.9-8.8-4.7-13.5-6.4c-6.7-2.4-13.4-4.6-20.4-6.2c-3.9-0.9-7.6-2.4-11.4-3.1c-3.3-0.6-6.4-1.4-9.6-2.5
		C143.8,392.8,141.9,391.4,140,392.6z M191.7,199.5c-6.4,8.9-11.2,18.5-15.4,28.4c-4.5,10.5-10,27.3-9.7,30.9
		c1.2-0.8,2.5-1.6,3.5-2.5c6.7-5.9,12.1-12.9,15.6-21.1c1.6-3.6,2.7-7.4,3.9-11.1c1.2-3.6,0.7-7.5,2.1-11c0.2-0.5,0-1.1,0-1.7
		C191.7,207.3,191.7,203.4,191.7,199.5z M252.6,473.5c0.4-1.8,0.9-3.2,1.1-4.6c0.3-3-0.1-6,0.7-9c0.8-2.8,0-6,0.9-9
		c0.5-1.8,0.2-3.7,0.8-5.6c0.6-1.7,0.4-3.7,0.8-5.6c0.9-4.3,1.5-8.6,2.6-12.9c1.1-4.6,2.4-9.2,3.7-13.8c0.3-1.1,1.1-1.8,0.1-3.1
		c-0.8,1.2-1.6,2.3-2.2,3.5c-5,9.2-6,12.3-8.2,22.5c-1.7,1.6-0.4,3.9-1.6,5.7c-0.9,1.5,0.2,3.6-0.8,5.6c-0.8,1.7-0.2,4.2-0.2,6.3
		c0,2.3,0,4.5,0,6.8c0,2.2,0.3,4.3,0.7,6.5C251.4,468.9,251.7,471,252.6,473.5z M146.2,86.2c-0.3,1.2-0.6,2.4-0.9,3.5
		c-0.7,2.7-1.7,5.3-2,8.1c-0.3,3.5-1.4,6.9-2.1,10.2c-0.8,3.8-1.2,7.6-2.2,11.4c-0.7,2.5-0.2,5.3-1.1,7.6c-0.7,1.9-0.2,3.9-0.8,5.6
		c-0.8,2-0.7,4-0.7,6.1c0,0.4,0.2,1,0,1.3c-1.4,1.7-0.6,3.7-0.8,5.6c-0.2,2-0.5,3.9-0.8,6c0.8,0,1.5,0,2.3,0
		c0.9-3.1,2.2-6.2,2.6-9.4c0.6-5.1,2.1-10,2.8-15c0.2-1.9,0.1-4,0.9-5.5c0.7-1.4,0.5-2.7,0.7-4c0.3-1.4,0.8-2.9,0.8-4.3
		c0-4.3,1.5-8.5,0.9-12.8c-0.1-0.4,0-0.8,0.1-1.2C146.8,95.9,146.9,90.2,146.2,86.2z M164.8,249.5c1.5-0.5,1.9-1.7,2.2-2.9
		c1.8-5.9,3.7-11.7,6.2-17.3c1-2.3,2.2-4.5,3.1-6.8c1.9-5.2,4.4-10.1,7.3-14.8c0.5-0.8,1.9-1.8,0.9-3.2c-1.7-0.2-2.3,1.2-3,2
		c-5.9,7.4-10.6,15.5-13.5,24.5C166.3,236.9,165.3,243.1,164.8,249.5z M199.2,372.9c-0.3,0-0.5,0-0.8,0.1c0.1,0.7,0.2,1.5,0.3,2.2
		c0.1,0,0.3,0,0.4,0C199.2,374.4,199.2,373.7,199.2,372.9z M264.5,409.2c0.1-0.1,0.2-0.2,0.3-0.3c-0.2-0.1-0.4-0.2-0.6-0.3
		c-0.1,0-0.2,0.2-0.3,0.3C264.2,409,264.3,409.1,264.5,409.2z M185.3,202.8c-0.1,0.1-0.3,0.2-0.3,0.3c0,0.2,0.2,0.4,0.3,0.6
		c0.1-0.1,0.3-0.2,0.3-0.3C185.6,203.1,185.4,203,185.3,202.8z M238.9,453.5c-0.1,0.1-0.3,0.2-0.3,0.3c0,0.2,0.2,0.4,0.3,0.6
		c0.1-0.1,0.3-0.2,0.3-0.3C239.1,453.9,239,453.7,238.9,453.5z"/>
	<path class="st0" d="M275,426.3c-0.3-0.3-0.8-0.7-0.8-1c-0.1-1.4,0-2.7,0-4.1c0.3,0,0.6,0,0.9,0C275,422.9,275,424.6,275,426.3z"/>
	<path class="st0" d="M275,433.1c-1.2-1.6-1.2-3.5,0-5.1C275,429.7,275,431.4,275,433.1z"/>
	<path class="st0" d="M275,421.2c-0.3,0-0.6,0-0.9,0c0-0.8-0.1-1.6,0-2.4c0.1-0.4,0.5-0.7,0.8-1C275,419,275,420.1,275,421.2z"/>
	<path class="st0" d="M199.2,372.9c0,0.8,0,1.5,0,2.3c-0.1,0-0.3,0-0.4,0c-0.1-0.7-0.2-1.5-0.3-2.2C198.7,373,199,372.9,199.2,372.9
		z"/>
	<path class="st0" d="M234,437.4c0,0.8,0.1,1.7,0.1,2.5c-0.2,0-0.4,0-0.6,0.1c-0.1-0.8-0.2-1.7-0.3-2.5
		C233.5,437.4,233.8,437.4,234,437.4z"/>
	<path class="st0" d="M178.8,337c0,0.5,0.1,1.1,0.1,1.6c-0.2,0-0.4,0-0.5,0.1c-0.1-0.6-0.2-1.1-0.3-1.7
		C178.3,337.1,178.5,337.1,178.8,337z"/>
	<path class="st0" d="M65.7,79.5c0,0.5,0.1,1.1,0.1,1.6c-0.2,0-0.4,0-0.5,0.1c-0.1-0.6-0.2-1.1-0.3-1.7
		C65.2,79.5,65.5,79.5,65.7,79.5z"/>
	<path class="st0" d="M119.3,143.2c0,0.5,0.1,1.1,0.1,1.6c-0.2,0-0.4,0-0.5,0.1c-0.1-0.6-0.2-1.1-0.3-1.7
		C118.8,143.3,119,143.2,119.3,143.2z"/>
	<path class="st0" d="M79.4,100c-0.2-0.2-0.5-0.4-0.7-0.6c0.1-0.1,0.2-0.2,0.3-0.3c0.2,0.2,0.4,0.5,0.6,0.7
		C79.5,99.9,79.5,99.9,79.4,100z"/>
	<path class="st0" d="M118.5,143.3c-0.2-0.2-0.5-0.4-0.7-0.6c0.1-0.1,0.2-0.2,0.3-0.3c0.2,0.2,0.4,0.5,0.6,0.7
		C118.6,143.2,118.6,143.3,118.5,143.3z"/>
	<path class="st0" d="M264.5,409.2c-0.2-0.1-0.4-0.2-0.5-0.3c0.1-0.1,0.2-0.3,0.3-0.3c0.2,0,0.4,0.2,0.6,0.3
		C264.7,409,264.6,409.1,264.5,409.2z"/>
	<path class="st0" d="M101.7,140.6c0.2,0.2,0.5,0.4,0.7,0.6c-0.1,0.1-0.2,0.2-0.3,0.3c-0.2-0.2-0.4-0.5-0.6-0.7
		C101.6,140.7,101.6,140.7,101.7,140.6z"/>
	<path class="st0" d="M9.7,129.7c-0.2-0.2-0.5-0.4-0.7-0.6c0.1-0.1,0.2-0.2,0.3-0.3c0.2,0.2,0.4,0.5,0.6,0.7
		C9.8,129.6,9.8,129.7,9.7,129.7z"/>
	<path class="st0" d="M101.5,140.8c-0.2-0.2-0.5-0.4-0.7-0.6c0.1-0.1,0.2-0.2,0.3-0.3c0.2,0.2,0.4,0.5,0.6,0.7
		C101.6,140.7,101.6,140.7,101.5,140.8z"/>
	<path class="st0" d="M230.7,440.9c-0.2-0.2-0.5-0.4-0.7-0.6c0.1-0.1,0.2-0.2,0.3-0.3c0.2,0.2,0.4,0.5,0.6,0.7
		C230.8,440.8,230.8,440.8,230.7,440.9z"/>
	<path class="st0" d="M230.9,440.7c0.2,0.2,0.5,0.4,0.7,0.6c-0.1,0.1-0.2,0.2-0.3,0.3c-0.2-0.2-0.4-0.5-0.6-0.7
		C230.8,440.8,230.8,440.7,230.9,440.7z"/>
	<path class="st0" d="M185.3,202.8c0.1,0.2,0.2,0.4,0.3,0.6c0,0.1-0.2,0.2-0.3,0.3c-0.1-0.2-0.2-0.4-0.3-0.6
		C185.1,203,185.2,202.9,185.3,202.8z"/>
	<path class="st0" d="M238.9,453.5c0.1,0.2,0.2,0.4,0.3,0.6c0,0.1-0.2,0.2-0.3,0.3c-0.1-0.2-0.2-0.4-0.3-0.6
		C238.6,453.7,238.8,453.6,238.9,453.5z"/>
</g>
</svg>
